<mxfile host="app.diagrams.net" modified="2024-03-20T16:31:31.195Z" agent="Mozilla/5.0 (X11; Linux x86_64) AppleWebKit/537.36 (KHTML, like Gecko) Chrome/122.0.0.0 Safari/537.36" version="24.0.4" etag="S0EcYK110UUjsr8wE3tU" type="github">
  <diagram name="第 1 页" id="tsNokWFcRfGmPQ9r7uVr">
    <mxGraphModel>
      <root>
        <mxCell id="0" />
        <mxCell id="1" parent="0" />
      </root>
    </mxGraphModel>
  </diagram>
</mxfile>
